<mxfile host="app.diagrams.net" agent="Mozilla/5.0 (Windows NT 10.0; Win64; x64) AppleWebKit/537.36 (KHTML, like Gecko) Chrome/139.0.0.0 Safari/537.36" version="28.1.1">
  <diagram name="Flowchart Nilai Siswa" id="sKRNrJxRwYyDQtcjCXCt">
    <mxGraphModel dx="1042" dy="657" grid="1" gridSize="10" guides="1" tooltips="1" connect="1" arrows="1" fold="1" page="1" pageScale="1" pageWidth="850" pageHeight="1100" math="0" shadow="0">
      <root>
        <mxCell id="0" />
        <mxCell id="1" parent="0" />
        <mxCell id="SfPJ2uYH6aIYCAtwOL5K-2" value="Mulai" style="ellipse;whiteSpace=wrap;html=1;" parent="1" vertex="1">
          <mxGeometry x="550" y="170" width="120" height="60" as="geometry" />
        </mxCell>
        <mxCell id="SfPJ2uYH6aIYCAtwOL5K-3" value="Input Data Siswa (Nama, NIS, Mapel, Nilai)" style="rounded=1;whiteSpace=wrap;html=1;" parent="1" vertex="1">
          <mxGeometry x="490" y="250" width="240" height="60" as="geometry" />
        </mxCell>
        <mxCell id="SfPJ2uYH6aIYCAtwOL5K-4" value="Hitung Rata-rata, Tertinggi, Terendah" style="rounded=1;whiteSpace=wrap;html=1;" parent="1" vertex="1">
          <mxGeometry x="490" y="330" width="240" height="60" as="geometry" />
        </mxCell>
        <mxCell id="SfPJ2uYH6aIYCAtwOL5K-5" value="Nilai &gt;= 75?" style="rhombus;whiteSpace=wrap;html=1;" parent="1" vertex="1">
          <mxGeometry x="550" y="410" width="120" height="80" as="geometry" />
        </mxCell>
        <mxCell id="SfPJ2uYH6aIYCAtwOL5K-6" value="Lulus" style="rounded=1;whiteSpace=wrap;html=1;" parent="1" vertex="1">
          <mxGeometry x="410" y="510" width="100" height="50" as="geometry" />
        </mxCell>
        <mxCell id="SfPJ2uYH6aIYCAtwOL5K-7" value="Tidak Lulus" style="rounded=1;whiteSpace=wrap;html=1;" parent="1" vertex="1">
          <mxGeometry x="630" y="510" width="100" height="50" as="geometry" />
        </mxCell>
        <mxCell id="SfPJ2uYH6aIYCAtwOL5K-8" value="Selesai" style="ellipse;whiteSpace=wrap;html=1;" parent="1" vertex="1">
          <mxGeometry x="550" y="590" width="120" height="60" as="geometry" />
        </mxCell>
        <mxCell id="SfPJ2uYH6aIYCAtwOL5K-9" style="edgeStyle=orthogonalEdgeStyle;rounded=0;orthogonalLoop=1;" parent="1" source="SfPJ2uYH6aIYCAtwOL5K-2" target="SfPJ2uYH6aIYCAtwOL5K-3" edge="1">
          <mxGeometry relative="1" as="geometry" />
        </mxCell>
        <mxCell id="SfPJ2uYH6aIYCAtwOL5K-10" style="edgeStyle=orthogonalEdgeStyle;rounded=0;orthogonalLoop=1;" parent="1" source="SfPJ2uYH6aIYCAtwOL5K-3" target="SfPJ2uYH6aIYCAtwOL5K-4" edge="1">
          <mxGeometry relative="1" as="geometry" />
        </mxCell>
        <mxCell id="SfPJ2uYH6aIYCAtwOL5K-11" style="edgeStyle=orthogonalEdgeStyle;rounded=0;orthogonalLoop=1;" parent="1" source="SfPJ2uYH6aIYCAtwOL5K-4" target="SfPJ2uYH6aIYCAtwOL5K-5" edge="1">
          <mxGeometry relative="1" as="geometry" />
        </mxCell>
        <mxCell id="SfPJ2uYH6aIYCAtwOL5K-12" value="Ya" style="edgeStyle=orthogonalEdgeStyle;rounded=0;orthogonalLoop=1;" parent="1" source="SfPJ2uYH6aIYCAtwOL5K-5" target="SfPJ2uYH6aIYCAtwOL5K-6" edge="1">
          <mxGeometry relative="1" as="geometry">
            <mxPoint x="490" y="490" as="targetPoint" />
          </mxGeometry>
        </mxCell>
        <mxCell id="SfPJ2uYH6aIYCAtwOL5K-13" value="Tidak" style="edgeStyle=orthogonalEdgeStyle;rounded=0;orthogonalLoop=1;" parent="1" source="SfPJ2uYH6aIYCAtwOL5K-5" target="SfPJ2uYH6aIYCAtwOL5K-7" edge="1">
          <mxGeometry relative="1" as="geometry">
            <mxPoint x="670" y="490" as="targetPoint" />
          </mxGeometry>
        </mxCell>
        <mxCell id="SfPJ2uYH6aIYCAtwOL5K-14" style="edgeStyle=orthogonalEdgeStyle;rounded=0;orthogonalLoop=1;" parent="1" source="SfPJ2uYH6aIYCAtwOL5K-6" target="SfPJ2uYH6aIYCAtwOL5K-8" edge="1">
          <mxGeometry relative="1" as="geometry" />
        </mxCell>
        <mxCell id="SfPJ2uYH6aIYCAtwOL5K-15" style="edgeStyle=orthogonalEdgeStyle;rounded=0;orthogonalLoop=1;" parent="1" source="SfPJ2uYH6aIYCAtwOL5K-7" target="SfPJ2uYH6aIYCAtwOL5K-8" edge="1">
          <mxGeometry relative="1" as="geometry" />
        </mxCell>
        <mxCell id="Y9F-JU6CR1JgBbWabR1M-3" value="" style="ellipse;whiteSpace=wrap;html=1;" parent="1" vertex="1">
          <mxGeometry x="1250" y="220" width="170" height="80" as="geometry" />
        </mxCell>
        <mxCell id="Y9F-JU6CR1JgBbWabR1M-4" value="" style="ellipse;whiteSpace=wrap;html=1;" parent="1" vertex="1">
          <mxGeometry x="1250" y="300" width="170" height="80" as="geometry" />
        </mxCell>
        <mxCell id="Y9F-JU6CR1JgBbWabR1M-5" value="" style="ellipse;whiteSpace=wrap;html=1;" parent="1" vertex="1">
          <mxGeometry x="1250" y="380" width="170" height="80" as="geometry" />
        </mxCell>
        <mxCell id="Y9F-JU6CR1JgBbWabR1M-6" value="" style="ellipse;whiteSpace=wrap;html=1;" parent="1" vertex="1">
          <mxGeometry x="1250" y="460" width="170" height="80" as="geometry" />
        </mxCell>
        <mxCell id="Y9F-JU6CR1JgBbWabR1M-7" value="" style="ellipse;whiteSpace=wrap;html=1;" parent="1" vertex="1">
          <mxGeometry x="1250" y="540" width="170" height="80" as="geometry" />
        </mxCell>
        <mxCell id="Y9F-JU6CR1JgBbWabR1M-8" value="" style="endArrow=none;html=1;rounded=0;exitX=1;exitY=0.5;exitDx=0;exitDy=0;entryX=1;entryY=0.5;entryDx=0;entryDy=0;" parent="1" source="Y9F-JU6CR1JgBbWabR1M-7" target="Y9F-JU6CR1JgBbWabR1M-3" edge="1">
          <mxGeometry width="50" height="50" relative="1" as="geometry">
            <mxPoint x="1420" y="480" as="sourcePoint" />
            <mxPoint x="1420" y="280" as="targetPoint" />
          </mxGeometry>
        </mxCell>
        <mxCell id="Y9F-JU6CR1JgBbWabR1M-18" value="" style="endArrow=none;html=1;rounded=0;" parent="1" edge="1">
          <mxGeometry width="50" height="50" relative="1" as="geometry">
            <mxPoint x="1140" y="290" as="sourcePoint" />
            <mxPoint x="1140" y="290" as="targetPoint" />
            <Array as="points" />
          </mxGeometry>
        </mxCell>
        <mxCell id="Y9F-JU6CR1JgBbWabR1M-30" value="&lt;span style=&quot;font-size: 14px;&quot;&gt;Input Nilai&lt;/span&gt;" style="text;html=1;align=center;verticalAlign=middle;whiteSpace=wrap;rounded=0;" parent="1" vertex="1">
          <mxGeometry x="1295" y="255" width="80" height="10" as="geometry" />
        </mxCell>
        <mxCell id="Y9F-JU6CR1JgBbWabR1M-31" value="&lt;span style=&quot;font-size: 14px;&quot;&gt;Lihat Laporan Nilai&lt;/span&gt;" style="text;html=1;align=center;verticalAlign=middle;whiteSpace=wrap;rounded=0;" parent="1" vertex="1">
          <mxGeometry x="1272.5" y="330" width="125" height="10" as="geometry" />
        </mxCell>
        <mxCell id="Y9F-JU6CR1JgBbWabR1M-32" value="&lt;span style=&quot;font-size: 14px;&quot;&gt;Lihat Nilai&lt;/span&gt;" style="text;html=1;align=center;verticalAlign=middle;whiteSpace=wrap;rounded=0;" parent="1" vertex="1">
          <mxGeometry x="1295" y="410" width="80" height="10" as="geometry" />
        </mxCell>
        <mxCell id="Y9F-JU6CR1JgBbWabR1M-33" value="&lt;span style=&quot;font-size: 14px;&quot;&gt;Kelola Data Siswa&lt;/span&gt;&lt;span style=&quot;color: rgba(0, 0, 0, 0); font-family: monospace; font-size: 0px; text-align: start; text-wrap-mode: nowrap;&quot;&gt;%3CmxGraphModel%3E%3Croot%3E%3CmxCell%20id%3D%220%22%2F%3E%3CmxCell%20id%3D%221%22%20parent%3D%220%22%2F%3E%3CmxCell%20id%3D%222%22%20value%3D%22%26lt%3Bspan%20style%3D%26quot%3Bfont-size%3A%2014px%3B%26quot%3B%26gt%3BInput%20Nilai%26lt%3B%2Fspan%26gt%3B%22%20style%3D%22text%3Bhtml%3D1%3Balign%3Dcenter%3BverticalAlign%3Dmiddle%3BwhiteSpace%3Dwrap%3Brounded%3D0%3B%22%20vertex%3D%221%22%20parent%3D%221%22%3E%3CmxGeometry%20x%3D%221295%22%20y%3D%22255%22%20width%3D%2280%22%20height%3D%2210%22%20as%3D%22geometry%22%2F%3E%3C%2FmxCell%3E%3C%2Froot%3E%3C%2FmxGraphModel%3E&lt;/span&gt;" style="text;html=1;align=center;verticalAlign=middle;whiteSpace=wrap;rounded=0;" parent="1" vertex="1">
          <mxGeometry x="1295" y="495" width="80" height="10" as="geometry" />
        </mxCell>
        <mxCell id="Y9F-JU6CR1JgBbWabR1M-34" value="&lt;span style=&quot;font-size: 14px;&quot;&gt;Hitung Rata-rata Nilai&lt;/span&gt;" style="text;html=1;align=center;verticalAlign=middle;whiteSpace=wrap;rounded=0;" parent="1" vertex="1">
          <mxGeometry x="1267.5" y="575" width="135" height="10" as="geometry" />
        </mxCell>
        <mxCell id="Y9F-JU6CR1JgBbWabR1M-46" value="&lt;font size=&quot;3&quot;&gt;GURU&lt;/font&gt;" style="shape=umlActor;verticalLabelPosition=bottom;verticalAlign=top;html=1;outlineConnect=0;" parent="1" vertex="1">
          <mxGeometry x="1090" y="250" width="30" height="65" as="geometry" />
        </mxCell>
        <mxCell id="Y9F-JU6CR1JgBbWabR1M-47" value="" style="endArrow=none;html=1;rounded=0;" parent="1" edge="1">
          <mxGeometry width="50" height="50" relative="1" as="geometry">
            <mxPoint x="1140" y="290" as="sourcePoint" />
            <mxPoint x="1230" y="320" as="targetPoint" />
          </mxGeometry>
        </mxCell>
        <mxCell id="Y9F-JU6CR1JgBbWabR1M-48" value="" style="endArrow=none;html=1;rounded=0;" parent="1" edge="1">
          <mxGeometry width="50" height="50" relative="1" as="geometry">
            <mxPoint x="1140" y="290" as="sourcePoint" />
            <mxPoint x="1230" y="270" as="targetPoint" />
          </mxGeometry>
        </mxCell>
        <mxCell id="Y9F-JU6CR1JgBbWabR1M-49" value="&lt;font size=&quot;3&quot;&gt;SISWA&lt;/font&gt;" style="shape=umlActor;verticalLabelPosition=bottom;verticalAlign=top;html=1;outlineConnect=0;" parent="1" vertex="1">
          <mxGeometry x="1090" y="360" width="30" height="60" as="geometry" />
        </mxCell>
        <mxCell id="Y9F-JU6CR1JgBbWabR1M-50" value="" style="endArrow=none;html=1;rounded=0;" parent="1" edge="1">
          <mxGeometry width="50" height="50" relative="1" as="geometry">
            <mxPoint x="1140" y="402.5" as="sourcePoint" />
            <mxPoint x="1230" y="420" as="targetPoint" />
            <Array as="points" />
          </mxGeometry>
        </mxCell>
        <mxCell id="Y9F-JU6CR1JgBbWabR1M-51" value="&lt;font size=&quot;3&quot;&gt;ADMIN&lt;/font&gt;" style="shape=umlActor;verticalLabelPosition=bottom;verticalAlign=top;html=1;outlineConnect=0;" parent="1" vertex="1">
          <mxGeometry x="1090" y="465" width="40" height="70" as="geometry" />
        </mxCell>
        <mxCell id="Y9F-JU6CR1JgBbWabR1M-53" value="" style="endArrow=none;html=1;rounded=0;" parent="1" edge="1">
          <mxGeometry width="50" height="50" relative="1" as="geometry">
            <mxPoint x="1150" y="510" as="sourcePoint" />
            <mxPoint x="1240" y="510" as="targetPoint" />
          </mxGeometry>
        </mxCell>
        <mxCell id="Y9F-JU6CR1JgBbWabR1M-54" value="" style="endArrow=none;html=1;rounded=0;" parent="1" edge="1">
          <mxGeometry width="50" height="50" relative="1" as="geometry">
            <mxPoint x="1150" y="510" as="sourcePoint" />
            <mxPoint x="1230" y="550" as="targetPoint" />
          </mxGeometry>
        </mxCell>
        <mxCell id="Y9F-JU6CR1JgBbWabR1M-56" value="" style="rounded=0;whiteSpace=wrap;html=1;" parent="1" vertex="1">
          <mxGeometry x="1730" y="200" width="120" height="70" as="geometry" />
        </mxCell>
        <mxCell id="Y9F-JU6CR1JgBbWabR1M-57" value="" style="rounded=0;whiteSpace=wrap;html=1;" parent="1" vertex="1">
          <mxGeometry x="1710" y="320" width="160" height="70" as="geometry" />
        </mxCell>
        <mxCell id="Y9F-JU6CR1JgBbWabR1M-58" value="" style="rhombus;whiteSpace=wrap;html=1;" parent="1" vertex="1">
          <mxGeometry x="1730" y="430" width="120" height="110" as="geometry" />
        </mxCell>
        <mxCell id="Y9F-JU6CR1JgBbWabR1M-59" value="" style="rounded=1;whiteSpace=wrap;html=1;" parent="1" vertex="1">
          <mxGeometry x="1840" y="560" width="120" height="60" as="geometry" />
        </mxCell>
        <mxCell id="Y9F-JU6CR1JgBbWabR1M-60" value="" style="rounded=1;whiteSpace=wrap;html=1;" parent="1" vertex="1">
          <mxGeometry x="1620" y="560" width="120" height="60" as="geometry" />
        </mxCell>
        <mxCell id="Y9F-JU6CR1JgBbWabR1M-61" value="" style="rounded=0;whiteSpace=wrap;html=1;" parent="1" vertex="1">
          <mxGeometry x="1710" y="660" width="160" height="70" as="geometry" />
        </mxCell>
        <mxCell id="Y9F-JU6CR1JgBbWabR1M-62" value="" style="rounded=0;whiteSpace=wrap;html=1;" parent="1" vertex="1">
          <mxGeometry x="1710" y="770" width="160" height="70" as="geometry" />
        </mxCell>
        <mxCell id="Y9F-JU6CR1JgBbWabR1M-63" value="" style="rounded=0;whiteSpace=wrap;html=1;" parent="1" vertex="1">
          <mxGeometry x="1710" y="890" width="160" height="70" as="geometry" />
        </mxCell>
        <mxCell id="Y9F-JU6CR1JgBbWabR1M-64" value="" style="shape=flexArrow;endArrow=classic;html=1;rounded=0;" parent="1" edge="1">
          <mxGeometry width="50" height="50" relative="1" as="geometry">
            <mxPoint x="1789.5" y="280" as="sourcePoint" />
            <mxPoint x="1789.5" y="310" as="targetPoint" />
            <Array as="points">
              <mxPoint x="1790" y="290" />
            </Array>
          </mxGeometry>
        </mxCell>
        <mxCell id="Y9F-JU6CR1JgBbWabR1M-65" value="" style="shape=flexArrow;endArrow=classic;html=1;rounded=0;" parent="1" edge="1">
          <mxGeometry width="50" height="50" relative="1" as="geometry">
            <mxPoint x="1789.5" y="400" as="sourcePoint" />
            <mxPoint x="1789.5" y="430" as="targetPoint" />
            <Array as="points">
              <mxPoint x="1790" y="410" />
            </Array>
          </mxGeometry>
        </mxCell>
        <mxCell id="Y9F-JU6CR1JgBbWabR1M-67" value="" style="endArrow=classic;html=1;rounded=0;" parent="1" edge="1">
          <mxGeometry width="50" height="50" relative="1" as="geometry">
            <mxPoint x="1850" y="505" as="sourcePoint" />
            <mxPoint x="1870" y="530" as="targetPoint" />
          </mxGeometry>
        </mxCell>
        <mxCell id="Y9F-JU6CR1JgBbWabR1M-69" value="" style="endArrow=classic;html=1;rounded=0;" parent="1" edge="1">
          <mxGeometry width="50" height="50" relative="1" as="geometry">
            <mxPoint x="1730" y="500" as="sourcePoint" />
            <mxPoint x="1710" y="530" as="targetPoint" />
          </mxGeometry>
        </mxCell>
        <mxCell id="Y9F-JU6CR1JgBbWabR1M-71" value="" style="endArrow=classic;html=1;rounded=0;" parent="1" edge="1">
          <mxGeometry width="50" height="50" relative="1" as="geometry">
            <mxPoint x="1640" y="640" as="sourcePoint" />
            <mxPoint x="1680" y="700" as="targetPoint" />
          </mxGeometry>
        </mxCell>
        <mxCell id="Y9F-JU6CR1JgBbWabR1M-72" value="" style="endArrow=classic;html=1;rounded=0;" parent="1" edge="1">
          <mxGeometry width="50" height="50" relative="1" as="geometry">
            <mxPoint x="1940" y="630" as="sourcePoint" />
            <mxPoint x="1890" y="690" as="targetPoint" />
          </mxGeometry>
        </mxCell>
        <mxCell id="Y9F-JU6CR1JgBbWabR1M-74" value="" style="shape=flexArrow;endArrow=classic;html=1;rounded=0;" parent="1" edge="1">
          <mxGeometry width="50" height="50" relative="1" as="geometry">
            <mxPoint x="1789.5" y="730" as="sourcePoint" />
            <mxPoint x="1789.5" y="770" as="targetPoint" />
          </mxGeometry>
        </mxCell>
        <mxCell id="Y9F-JU6CR1JgBbWabR1M-75" value="" style="shape=flexArrow;endArrow=classic;html=1;rounded=0;exitX=0.5;exitY=1;exitDx=0;exitDy=0;" parent="1" source="Y9F-JU6CR1JgBbWabR1M-62" edge="1">
          <mxGeometry width="50" height="50" relative="1" as="geometry">
            <mxPoint x="1789.5" y="850" as="sourcePoint" />
            <mxPoint x="1789.5" y="890" as="targetPoint" />
          </mxGeometry>
        </mxCell>
        <mxCell id="Y9F-JU6CR1JgBbWabR1M-76" value="&lt;b&gt;Ya&lt;/b&gt;" style="text;html=1;align=center;verticalAlign=middle;whiteSpace=wrap;rounded=0;" parent="1" vertex="1">
          <mxGeometry x="1670" y="530" width="60" height="30" as="geometry" />
        </mxCell>
        <mxCell id="Y9F-JU6CR1JgBbWabR1M-77" value="&lt;b&gt;Tidak&lt;/b&gt;" style="text;html=1;align=center;verticalAlign=middle;whiteSpace=wrap;rounded=0;" parent="1" vertex="1">
          <mxGeometry x="1850" y="530" width="60" height="30" as="geometry" />
        </mxCell>
        <mxCell id="Y9F-JU6CR1JgBbWabR1M-78" value="&lt;font size=&quot;3&quot;&gt;&lt;b&gt;Mulai&lt;/b&gt;&lt;/font&gt;" style="text;html=1;align=center;verticalAlign=middle;whiteSpace=wrap;rounded=0;" parent="1" vertex="1">
          <mxGeometry x="1760" y="220" width="60" height="30" as="geometry" />
        </mxCell>
        <mxCell id="Y9F-JU6CR1JgBbWabR1M-79" value="&lt;font size=&quot;3&quot;&gt;&lt;b&gt;Lulus&lt;/b&gt;&lt;/font&gt;" style="text;html=1;align=center;verticalAlign=middle;whiteSpace=wrap;rounded=0;" parent="1" vertex="1">
          <mxGeometry x="1650" y="575" width="60" height="30" as="geometry" />
        </mxCell>
        <mxCell id="Y9F-JU6CR1JgBbWabR1M-81" value="&lt;font size=&quot;3&quot;&gt;&lt;b&gt;Tidak Lulus&lt;/b&gt;&lt;/font&gt;" style="text;html=1;align=center;verticalAlign=middle;whiteSpace=wrap;rounded=0;" parent="1" vertex="1">
          <mxGeometry x="1845" y="575" width="110" height="30" as="geometry" />
        </mxCell>
        <mxCell id="Y9F-JU6CR1JgBbWabR1M-82" value="&lt;font size=&quot;3&quot;&gt;&lt;b&gt;Selesai&lt;/b&gt;&lt;/font&gt;" style="text;html=1;align=center;verticalAlign=middle;whiteSpace=wrap;rounded=0;" parent="1" vertex="1">
          <mxGeometry x="1760" y="910" width="60" height="30" as="geometry" />
        </mxCell>
        <mxCell id="Y9F-JU6CR1JgBbWabR1M-83" value="&lt;font size=&quot;3&quot;&gt;&lt;b&gt;Tampilkan hasil ke siswa&lt;/b&gt;&lt;/font&gt;" style="text;html=1;align=center;verticalAlign=middle;whiteSpace=wrap;rounded=0;" parent="1" vertex="1">
          <mxGeometry x="1710" y="790" width="160" height="30" as="geometry" />
        </mxCell>
        <mxCell id="Y9F-JU6CR1JgBbWabR1M-84" value="&lt;font size=&quot;3&quot;&gt;&lt;b&gt;Simpan hasil penilaian&lt;/b&gt;&lt;/font&gt;" style="text;html=1;align=center;verticalAlign=middle;whiteSpace=wrap;rounded=0;" parent="1" vertex="1">
          <mxGeometry x="1730" y="680" width="120" height="30" as="geometry" />
        </mxCell>
        <mxCell id="Y9F-JU6CR1JgBbWabR1M-85" value="&lt;font size=&quot;3&quot;&gt;&lt;b&gt;Guru menginput nilai siswa&lt;/b&gt;&lt;/font&gt;" style="text;html=1;align=center;verticalAlign=middle;whiteSpace=wrap;rounded=0;" parent="1" vertex="1">
          <mxGeometry x="1720" y="340" width="140" height="30" as="geometry" />
        </mxCell>
        <mxCell id="Y9F-JU6CR1JgBbWabR1M-86" value="&lt;font size=&quot;3&quot;&gt;&lt;b&gt;Nilai &amp;gt; = 75?&lt;/b&gt;&lt;/font&gt;" style="text;html=1;align=center;verticalAlign=middle;whiteSpace=wrap;rounded=0;" parent="1" vertex="1">
          <mxGeometry x="1735" y="470" width="110" height="30" as="geometry" />
        </mxCell>
      </root>
    </mxGraphModel>
  </diagram>
</mxfile>
